# Blender 4.5.3 LTS
# www.blender.org
mtllib candle_01.mtl
o Candle_01
v -8.718591 0.083919 1.529243
v -8.718591 0.355966 1.529243
v -8.670415 0.083919 1.564244
v -8.670415 0.374220 1.564244
v -8.688817 0.083919 1.620878
v -8.688817 0.381204 1.620878
v -8.748364 0.083919 1.620878
v -8.748364 0.367267 1.620878
v -8.766767 0.083919 1.564244
v -8.766767 0.351669 1.564244
v -8.718590 0.025703 1.420078
v -8.486941 0.025703 1.458164
v -8.606616 0.025703 1.764697
v -8.830564 0.025703 1.818143
v -8.899767 0.025703 1.551711
v -8.718591 0.363878 1.585987
v -8.718591 0.403370 1.579409
v -8.724288 0.363878 1.576119
v -8.712893 0.363878 1.576119
vn -0.0576 0.5050 -0.8612
vn 0.6606 0.7146 -0.2303
vn -0.0000 0.6239 -0.7815
vn 0.9774 -0.0000 -0.2113
vn 0.4324 0.7067 0.5600
vn -0.4929 -0.0000 0.8701
vn -0.4284 0.7244 0.5401
vn -0.2237 0.9558 -0.1906
vn -0.8299 0.4718 -0.2976
vn -0.7023 0.6557 -0.2773
vn -0.0655 0.8987 -0.4337
vn 0.1981 0.9471 0.2523
vn -0.3852 0.9160 -0.1123
vn -0.1272 0.9645 0.2316
vn 0.2299 0.9643 -0.1315
vn -0.8630 0.0830 0.4983
vn -0.0000 0.0830 -0.9965
vn 0.8630 0.0830 0.4983
vn 0.6113 -0.0000 0.7914
vt 0.654012 0.362834
vt 0.716780 0.008380
vt 0.654012 0.008380
vt 0.586221 0.522388
vt 0.207985 0.596177
vt 0.207985 0.522388
vt 0.573938 0.007834
vt 0.496352 0.377012
vt 0.496352 0.007834
vt 0.554792 0.807803
vt 0.593585 0.927196
vt 0.515999 0.927196
vt 0.209036 0.685988
vt 0.557892 0.612199
vt 0.209036 0.612199
vt 0.591244 0.357235
vt 0.591244 0.008380
vt 0.205660 0.294792
vt 0.008385 0.277343
vt 0.146731 0.244325
vt 0.253857 0.178876
vt 0.478994 0.315018
vt 0.271867 0.254343
vt 0.120408 0.007922
vt 0.478994 0.015041
vt 0.126715 0.559397
vt 0.176518 0.172685
vt 0.765768 0.296774
vt 0.763602 0.339417
vt 0.770100 0.339417
vt 0.766851 0.296774
vt 0.763099 0.339417
vt 0.770603 0.339417
vt 0.716780 0.386617
vt 0.595321 0.596177
vt 0.573938 0.395170
vt 0.492024 0.853407
vt 0.617560 0.853407
vt 0.578214 0.685988
s 1
usemtl Candles
f 2/1/1 3/2/2 1/3/3
f 4/4/4 5/5/5 3/6/2
f 5/7/5 8/8/6 7/9/7
f 2/10/1 8/11/8 6/12/8
f 7/13/7 10/14/9 9/15/10
f 10/16/9 1/3/3 9/17/10
f 3/18/2 11/19/11 1/20/3
f 7/21/7 13/22/12 5/23/5
f 7/21/7 15/24/13 14/25/14
f 3/18/2 13/22/12 12/26/15
f 9/27/10 11/19/11 15/24/13
f 17/28/16 18/29/16 16/30/16
f 17/31/17 19/32/17 18/33/17
f 17/28/18 16/30/18 19/29/18
f 2/1/1 4/34/4 3/2/2
f 4/4/4 6/35/19 5/5/5
f 5/7/5 6/36/19 8/8/6
f 6/12/8 4/37/8 2/10/1
f 2/10/1 10/38/9 8/11/8
f 7/13/7 8/39/6 10/14/9
f 10/16/9 2/1/1 1/3/3
f 3/18/2 12/26/15 11/19/11
f 7/21/7 14/25/14 13/22/12
f 7/21/7 9/27/10 15/24/13
f 3/18/2 5/23/5 13/22/12
f 9/27/10 1/20/3 11/19/11
